:version 1.10
:name ASF
:units
  mass 1
  length 1
  angle deg
:documentation
  ASF file generated by Kaydara
:root
  axis xyz
  order  tx ty tz rx ry rz
  position 0 0 0
  orientation 0 0 0
:bonedata
  begin
    id 1
    name lfemurDummy
    direction 0.61522 -0.761478 0.204097
    length 5.68318
    axis 0 -0 0 xyz
  end
  begin
    id 2
    name lfemur
    direction 0.34202 -0.939693 -5.84747e-008
    length 16.9147
    axis 0 -0 20 xyz
    dof rx ry rz
    limits( -inf , inf )
( -inf , inf )
( -inf , inf )

  end
  begin
    id 3
    name ltibia
    direction 0.34202 -0.939693 1.20839e-009
    length 18.0532
    axis 0 -0 20 xyz
    dof rz ry rx
    limits( -inf , inf )
( -inf , inf )
( -inf , inf )

  end
  begin
    id 4
    name lfoot
    direction 0.0841971 -0.23133 0.969225
    length 5.23822
    axis -90 7.62852e-016 20 xyz
    dof ry rx rz
    limits( -inf , inf )
( -inf , inf )
( -inf , inf )

  end
  begin
    id 5
    name ltoes
    direction 0 0 0
    length 0
    axis 0 0 0 xyz
    dof rz ry rx
    limits( -inf , inf )
( -inf , inf )
( -inf , inf )

  end
  begin
    id 6
    name rfemurDummy
    direction -0.625247 -0.75382 0.202044
    length 5.74091
    axis 0 -0 0 xyz
  end
  begin
    id 7
    name rfemur
    direction -0.34202 -0.939693 -1.47013e-008
    length 16.4922
    axis 0 -0 -20 xyz
    dof rx ry rz
    limits( -inf , inf )
( -inf , inf )
( -inf , inf )

  end
  begin
    id 8
    name rtibia
    direction -0.34202 -0.939693 -7.74345e-010
    length 18.2421
    axis 0 -0 -20 xyz
    dof rz ry rx
    limits( -inf , inf )
( -inf , inf )
( -inf , inf )

  end
  begin
    id 9
    name rfoot
    direction -0.124331 -0.341598 0.931586
    length 5.45787
    axis -90 -7.62852e-016 -20 xyz
    dof ry rx rz
    limits( -inf , inf )
( -inf , inf )
( -inf , inf )

  end
  begin
    id 10
    name rtoes
    direction 0 0 0
    length 0
    axis 0 0 0 xyz
    dof rz ry rx
    limits( -inf , inf )
( -inf , inf )
( -inf , inf )

  end
  begin
    id 11
    name lowerbackDummy
    direction 0 0 0
    length 0
    axis 0 -0 0 xyz
  end
  begin
    id 12
    name lowerback
    direction -0.0218484 0.994884 -0.0986304
    length 4.45607
    axis 0 -0 0 xyz
    dof rx ry rz
    limits( -inf , inf )
( -inf , inf )
( -inf , inf )

  end
  begin
    id 13
    name upperback
    direction -0.00973057 0.999717 -0.0217111
    length 4.47449
    axis 0 -0 0 xyz
    dof rx ry rz
    limits( -inf , inf )
( -inf , inf )
( -inf , inf )

  end
  begin
    id 14
    name thorax
    direction -0.000928171 0.999699 0.0245198
    length 4.50973
    axis 0 -0 0 xyz
    dof rx ry rz
    limits( -inf , inf )
( -inf , inf )
( -inf , inf )

  end
  begin
    id 15
    name rclavicle
    direction -0.9009 0.425937 -0.0834055
    length 7.28587
    axis 0 -0 0 xyz
    dof rx ry rz
    limits( -inf , inf )
( -inf , inf )
( -inf , inf )

  end
  begin
    id 16
    name rhumerus
    direction -1 -2.23604e-007 -1.42637e-007
    length 13.5704
    axis 180 30 90 xyz
    dof rx ry rz
    limits( -inf , inf )
( -inf , inf )
( -inf , inf )

  end
  begin
    id 17
    name rradius
    direction -1 5.68281e-008 -4.4952e-007
    length 8.06782
    axis 180 30 90 xyz
    dof rz ry rx
    limits( -inf , inf )
( -inf , inf )
( -inf , inf )

  end
  begin
    id 18
    name rwrist
    direction -1 1.51393e-007 1.38143e-007
    length 4.03391
    axis -90 -90 0 xyz
    dof rz rx ry
    limits( -inf , inf )
( -inf , inf )
( -inf , inf )

  end
  begin
    id 19
    name rthumb
    direction 0 0 0
    length 0
    axis 0 0 0 xyz
    dof ry rx rz
    limits( -inf , inf )
( -inf , inf )
( -inf , inf )

  end
  begin
    id 20
    name rhand
    direction -1 -3.34077e-007 -5.59631e-007
    length 1.29744
    axis -90 -90 0 xyz
    dof ry rx rz
    limits( -inf , inf )
( -inf , inf )
( -inf , inf )

  end
  begin
    id 21
    name rfingers
    direction 0 0 0
    length 0
    axis 0 0 0 xyz
    dof rz ry rx
    limits( -inf , inf )
( -inf , inf )
( -inf , inf )

  end
  begin
    id 22
    name lclavicle
    direction 0.940017 0.332249 -0.0773232
    length 8.29589
    axis 0 -0 0 xyz
    dof rx ry rz
    limits( -inf , inf )
( -inf , inf )
( -inf , inf )

  end
  begin
    id 23
    name lhumerus
    direction 1 7.41158e-008 -1.44768e-008
    length 12.0042
    axis 180 -30 -90 xyz
    dof rx ry rz
    limits( -inf , inf )
( -inf , inf )
( -inf , inf )

  end
  begin
    id 24
    name lradius
    direction 1 -1.32972e-007 3.10821e-007
    length 8.1902
    axis 180 -30 -90 xyz
    dof rz ry rx
    limits( -inf , inf )
( -inf , inf )
( -inf , inf )

  end
  begin
    id 25
    name lwrist
    direction 1 3.08957e-007 4.01394e-007
    length 4.09509
    axis -90 90 0 xyz
    dof rz rx ry
    limits( -inf , inf )
( -inf , inf )
( -inf , inf )

  end
  begin
    id 26
    name lthumb
    direction 0 0 0
    length 0
    axis 0 0 0 xyz
    dof ry rx rz
    limits( -inf , inf )
( -inf , inf )
( -inf , inf )

  end
  begin
    id 27
    name lhand
    direction 1 -1.64125e-007 -6.99514e-007
    length 1.37229
    axis -90 90 0 xyz
    dof ry rx rz
    limits( -inf , inf )
( -inf , inf )
( -inf , inf )

  end
  begin
    id 28
    name lfingers
    direction 0 0 0
    length 0
    axis 0 0 0 xyz
    dof rz ry rx
    limits( -inf , inf )
( -inf , inf )
( -inf , inf )

  end
  begin
    id 29
    name lowerneck
    direction -0.030798 0.998024 0.0547665
    length 3.93918
    axis 0 -0 0 xyz
    dof rx ry rz
    limits( -inf , inf )
( -inf , inf )
( -inf , inf )

  end
  begin
    id 30
    name upperneck
    direction 0.0531588 0.996611 -0.0627736
    length 3.95491
    axis 0 -0 0 xyz
    dof rx ry rz
    limits( -inf , inf )
( -inf , inf )
( -inf , inf )

  end
  begin
    id 31
    name head
    direction 0 0 0
    length 0
    axis 0 0 0 xyz
    dof rx ry rz
    limits( -inf , inf )
( -inf , inf )
( -inf , inf )

  end
:hierarchy
  begin
    root lfemurDummy rfemurDummy lowerbackDummy
    lfemurDummy lfemur
    lfemur ltibia
    ltibia lfoot
    lfoot ltoes
    rfemurDummy rfemur
    rfemur rtibia
    rtibia rfoot
    rfoot rtoes
    lowerbackDummy lowerback
    lowerback upperback
    upperback thorax
    thorax rclavicle lclavicle lowerneck
    rclavicle rhumerus
    rhumerus rradius
    rradius rwrist
    rwrist rthumb rhand
    rhand rfingers
    lclavicle lhumerus
    lhumerus lradius
    lradius lwrist
    lwrist lthumb lhand
    lhand lfingers
    lowerneck upperneck
    upperneck head
  end

:SAMPLES-PER-SECOND 30
:FULLY-SPECIFIED
:DEGREES
1
root  2.114651147 40.94688836 3.609511233 -167.0770264 -67.04109955 170.5170288
lowerback  17.15679932 3.514529943 -3.007270098
upperback  4.644070148 3.687319994 -1.192270041
thorax  -4.737730026 1.682029963 -0.322378993
lowerneck  -1.423750043 12.00720024 -0.3010019958
upperneck  7.886229992 16.42670059 -6.001959801
head  3.341370106 7.906219959 -1.297049999
lclavicle  0 -9.442270133e-015 7.951389973e-016
lhumerus  -10.88259983 1.757750034 63.38140106
lradius  2.962121924e-031 -1.922154454e-031 147.0200043
lwrist  -7.062250077e-031 1.765562519e-031 41.13840103
lhand  -1.496451383e-031 -27.76390076 20.11240005
lfingers  90 7.125020027 -90
lthumb  89.89689403 5.08795885 91.16245106
rclavicle  0 -9.442270133e-015 7.951389973e-016
rhumerus  -6.875380039 9.057760239 -80.22730255
rradius  -1.434548769e-031 3.226594779e-031 113.9700012
rwrist  7.062250077e-031 -0 -58.51340103
rhand  -7.920061211e-032 -33.2840004 9.303460121
rfingers  -90 -7.125020027 -90
rthumb  -92.93752616 -24.25625642 -97.11982154
rfemur  -21.59569931 14.37360001 -5.287220001
rtibia  -0 0 50.22520065
rfoot  -0 -7.681429863 -8.95868969
rtoes  5.373923086 19.29304026 -105.8922705
lfemur  -28.71899986 8.90170002 -4.386660099
ltibia  -0 0 51.77420044
lfoot  4.415914675e-032 -1.728090048 4.148630142
ltoes  -4.250644065 -19.5611806 -102.515957
2
root  2.114651147 40.94688836 3.609511233 -167.0770264 -67.04109955 170.5170288
lowerback  17.15679932 3.514529943 -3.007270098
upperback  4.644070148 3.687319994 -1.192270041
thorax  -4.737730026 1.682029963 -0.322378993
lowerneck  -1.423750043 12.00720024 -0.3010019958
upperneck  7.886229992 16.42670059 -6.001959801
head  3.341370106 7.906219959 -1.297049999
lclavicle  0 -9.442270133e-015 7.951389973e-016
lhumerus  -10.88259983 1.757750034 63.38140106
lradius  2.962121924e-031 -1.922154454e-031 147.0200043
lwrist  -7.062250077e-031 1.765562519e-031 41.13840103
lhand  -1.496451383e-031 -27.76390076 20.11240005
lfingers  90 7.125020027 -90
lthumb  89.89689403 5.08795885 91.16245106
rclavicle  0 -9.442270133e-015 7.951389973e-016
rhumerus  -6.875380039 9.057760239 -80.22730255
rradius  -1.434548769e-031 3.226594779e-031 113.9700012
rwrist  7.062250077e-031 -0 -58.51340103
rhand  -7.920061211e-032 -33.2840004 9.303460121
rfingers  -90 -7.125020027 -90
rthumb  -92.93752616 -24.25625642 -97.11982154
rfemur  -21.59569931 14.37360001 -5.287220001
rtibia  -0 0 50.22520065
rfoot  -0 -7.681429863 -8.95868969
rtoes  5.373923086 19.29304026 -105.8922705
lfemur  -28.71899986 8.90170002 -4.386660099
ltibia  -0 0 51.77420044
lfoot  4.415914675e-032 -1.728090048 4.148630142
ltoes  -4.250644065 -19.5611806 -102.515957
3
root  2.065677718 40.87288924 3.647155461 -167.4899902 -67.08399963 170.6749878
lowerback  17.09160042 3.473750114 -2.724570036
upperback  4.629799843 3.694370031 -1.117769957
thorax  -4.705739975 1.686179996 -0.400631994
lowerneck  -1.439530015 11.93830013 -0.2061440051
upperneck  8.092539787 16.34519958 -6.045919895
head  3.427220106 7.857610226 -1.32111001
lclavicle  0 -9.442270133e-015 7.951389973e-016
lhumerus  -12.3718996 -0.9435520172 64.18049622
lradius  2.934824105e-031 -1.963581296e-031 146.2149963
lwrist  -7.062250077e-031 2.648343779e-031 38.96009827
lhand  -1.496451383e-031 -27.76390076 20.11240005
lfingers  90 7.125020027 -90
lthumb  89.89689403 5.08795885 91.16245106
rclavicle  0 -9.442270133e-015 7.951389973e-016
rhumerus  -7.604990005 8.7604599 -79.97309875
rradius  -1.434605052e-031 3.226569755e-031 113.9710007
rwrist  1.059337512e-030 3.531125038e-031 -58.08789825
rhand  -7.920061211e-032 -33.2840004 9.303460121
rfingers  -90 -7.125020027 -90
rthumb  -92.93752616 -24.25625642 -97.11982154
rfemur  -21.02589989 14.81000042 -5.034759998
rtibia  -0 0 50.64500046
rfoot  -0 -7.467679977 -8.364970207
rtoes  5.373923086 19.29304026 -105.8922705
lfemur  -28.09519958 8.178230286 -3.711580038
ltibia  -0 0 51.34339905
lfoot  8.834355723e-032 -2.205310106 5.917769909
ltoes  -4.250644065 -19.5611806 -102.515957
4
root  2.005937719 40.78799871 3.660000028 -167.9260254 -67.03309631 170.7689819
lowerback  17.03899956 3.43979001 -2.771430016
upperback  4.651720047 3.655679941 -0.9540650249
thorax  -4.667660236 1.667809963 -0.1899870038
lowerneck  -1.659319997 11.95429993 -0.2085320055
upperneck  8.350319862 16.40410042 -6.248270035
head  3.582190037 7.862609863 -1.358710051
lclavicle  0 -9.442270133e-015 7.951389973e-016
lhumerus  -14.02019978 -2.762170076 65.27140045
lradius  2.908975207e-031 -2.001676118e-031 145.4680023
lwrist  -7.062250077e-031 3.531125038e-031 37.90470123
lhand  -1.496451383e-031 -27.76390076 20.11240005
lfingers  90 7.125020027 -90
lthumb  89.89689403 5.08795885 91.16245106
rclavicle  0 -9.442270133e-015 7.951389973e-016
rhumerus  -8.464679718 8.720899582 -79.8483963
rradius  -1.429365807e-031 3.228894149e-031 113.8779984
rwrist  3.531125038e-031 3.531125038e-031 -57.54539871
rhand  -7.920061211e-032 -33.2840004 9.303460121
rfingers  -90 -7.125020027 -90
rthumb  -92.93752616 -24.25625642 -97.11982154
rfemur  -20.25729942 15.69340038 -4.820330143
rtibia  -0 0 50.70420074
rfoot  -0 -6.725759983 -7.917490005
rtoes  5.373923086 19.29304026 -105.8922705
lfemur  -27.3071003 7.537819862 -3.02677989
ltibia  -0 0 50.8708992
lfoot  -0 -2.538409948 7.534110069
ltoes  -4.250644065 -19.5611806 -102.515957
